# xmcd CD database file
#
# Track frame offsets:
#	150
#	13805
#	27130
#	43600
#	59657
#	73007
#	93287
#	115315
#	138805
#	160220
#	177715
#	192990
#	213296
#	228805
#	250615
#	277655
#
# Disc length: 3868 seconds
#
# Revision: 0
# Processed by: cddbd v1.5.1PL0 Copyright (c) Steve Scherf et al.
# Submitted via: CDex 1.50
#
DISCID=d80f1a10
DTITLE=Janelle Lauer - Live At Liars
DYEAR=2003
DGENRE=Blues
TTITLE0=That Old Black Magic
TTITLE1=Natural Woman
TTITLE2=Last night I Dreamed
TTITLE3=About To Make Me Leave Home
TTITLE4=Drinking Again
TTITLE5=Turn Me On
TTITLE6=Chocolate Jesus
TTITLE7=Waiting In Vain
TTITLE8=City Streets
TTITLE9=Give a Man a Home
TTITLE10=bent Out of Shape
TTITLE11=I Feel The Same
TTITLE12=My Baby Just Cares for Me
TTITLE13=Good Morning Heartache
TTITLE14=Two of Us
TTITLE15=Was I
EXTD=YEAR: 2003
EXTT0=
EXTT1=
EXTT2=
EXTT3=
EXTT4=
EXTT5=
EXTT6=
EXTT7=
EXTT8=
EXTT9=
EXTT10=
EXTT11=
EXTT12=
EXTT13=
EXTT14=
EXTT15=
PLAYORDER=
